<svg width="40" height="36" viewBox="0 0 40 36" fill="none" xmlns="http://www.w3.org/2000/svg">
<path d="M39.2422 13.4156C39.5469 13.1977 40 13.4016 40 13.7461V28.125C40 29.9883 38.3203 31.5 36.25 31.5H3.75C1.67969 31.5 0 29.9883 0 28.125V13.7531C0 13.4016 0.445312 13.2047 0.757812 13.4227C2.50781 14.6461 4.82812 16.2 12.7969 21.4102C14.4453 22.493 17.2266 24.7711 20 24.757C22.7891 24.7781 25.625 22.4508 27.2109 21.4102C35.1797 16.2 37.4922 14.6391 39.2422 13.4156ZM20 22.5C21.8125 22.5281 24.4219 20.4469 25.7344 19.5891C36.1016 12.818 36.8906 12.2273 39.2812 10.5398C39.7344 10.2234 40 9.73125 40 9.21094V7.875C40 6.01172 38.3203 4.5 36.25 4.5H3.75C1.67969 4.5 0 6.01172 0 7.875V9.21094C0 9.73125 0.265625 10.2164 0.71875 10.5398C3.10938 12.2203 3.89844 12.818 14.2656 19.5891C15.5781 20.4469 18.1875 22.5281 20 22.5Z" fill="#EAB9F7"/>
</svg>
